<svg xmlns="http://www.w3.org/2000/svg" xmlns:xlink="http://www.w3.org/1999/xlink" width="16" height="16" viewBox="0 0 50 50"><defs><style>.a{clip-path:url(#b);}.b{fill:#142b26;}.c{fill:none;stroke:#142b26;}</style><clipPath id="b"><rect width="50" height="50"/></clipPath></defs><g id="a" class="a"><path class="b" d="M28.669,18.634H0V0H28.669l8.256,7.371c.01.009.961.957.961,1.65a2.923,2.923,0,0,1-.835,1.529L28.67,18.633Zm0-12.614a2.867,2.867,0,1,0,2.866,2.868A2.871,2.871,0,0,0,28.669,6.019Z" transform="translate(3.676 32.517) rotate(-45)"/><path class="b" d="M23.375,9.7H0v-4.1H23.713L29.525,0l.582.52c.008.008.784.784.784,1.344a2.359,2.359,0,0,1-.681,1.248L23.375,9.7Z" transform="translate(18.344 38.183) rotate(-45)"/><circle class="b" cx="1.433" cy="1.433" r="1.433" transform="translate(28.205 18.529) rotate(-45)"/><path class="c" d="M0,7.82S6,.331,8.965.024s3.992,2.405,3.992,3.838-.717,4.5-2.917,5.629a7.572,7.572,0,0,1-4.4.716" transform="translate(24.703 12.999) rotate(-45)"/></g></svg>