<svg enable-background="new -213 214.5 572.5 572.5" viewBox="-213 214.5 572.5 572.5" xmlns="http://www.w3.org/2000/svg" xmlns:xlink="http://www.w3.org/1999/xlink"><clipPath id="a"><path d="m-261 178.5h671v648h-671z"/></clipPath><linearGradient id="b" gradientTransform="matrix(201.975 0 0 -96.715 113824.8438 84045.5)" gradientUnits="userSpaceOnUse" x1="-563.8884" x2="-563.8884" y1="866.7236" y2="865.5917"><stop offset="0" stop-color="#a2eae2"/><stop offset=".48" stop-color="#55a09e"/><stop offset=".828" stop-color="#237073"/><stop offset="1" stop-color="#105e62"/></linearGradient><g clip-path="url(#a)"><g transform="translate(58.629 47.369)"><g transform="translate(80.819 85.366)"><path d="m107.3 258.8v192.6l-172.2 96.4v-192.6z" fill="#105e62"/><path d="m107.3 258.8-172.2 96.4-172.1-96.4 171.5-62.8z" fill="#a2eae2"/><path d="m-64.8 355.2v192.6l-172.2-110.6v-178.4z" fill="#41aaa8"/><path d="m51.9 263.5-118.7-43.3-118 43.3 118.5 66.2z" fill="url(#b)"/><path d="m-64.8 355.2v191.7" fill="none" stroke="#105e62" stroke-miterlimit="10" stroke-width=".5"/></g><path d="m282.7 296.4v284.1l-259.4 145v-69.2l191.5-107.1v-214.9z" fill="#105e62"/><path d="m280.2 281.2-75 41.8-189.9-69-188.8 69-74.8-41.8 263.4-96.4z" fill="#a2eae2"/><path d="m8.4 655.7v69.2l-259.4-166.5v-262l67.9 37.9v198.4z" fill="#41aaa8"/></g></g></svg>