<svg xmlns="http://www.w3.org/2000/svg" xmlns:xlink="http://www.w3.org/1999/xlink" width="44" height="50" viewBox="0 0 44 50">
  <defs>
    <clipPath id="clip-path">
      <rect width="26.079" height="19.319" fill="none"/>
    </clipPath>
    <clipPath id="clip-quotation-icon">
      <rect width="44" height="50"/>
    </clipPath>
  </defs>
  <g id="quotation-icon" clip-path="url(#clip-quotation-icon)">
    <g id="Group_11" data-name="Group 11" transform="translate(-17.58 -14.776)">
      <path id="box" d="M1.751,0H23.2l6.665,5.729V31.97a1.662,1.662,0,0,1-1.751,1.555H1.751A1.662,1.662,0,0,1,0,31.97V1.555A1.662,1.662,0,0,1,1.751,0Z" transform="translate(20.568 22.276)" fill="none" stroke="#3f5655" stroke-linejoin="round" stroke-width="1.5"/>
      <ellipse id="Ellipse_26" data-name="Ellipse 26" cx="9.069" cy="9.069" rx="9.069" ry="9.069" transform="translate(41.326 43.673)" fill="#3f5655"/>
      <g id="Repeat_Grid_1" data-name="Repeat Grid 1" transform="translate(24.35 28.728)" clip-path="url(#clip-path)">
        <g transform="translate(-113.25 -76.25)">
          <line id="Line_57" data-name="Line 57" x2="18.479" transform="translate(114.5 77.5)" fill="none" stroke="#3f5655" stroke-linecap="round" stroke-width="1.5"/>
        </g>
        <g transform="translate(-113.25 -69.25)">
          <line id="Line_57-2" data-name="Line 57" x2="18.479" transform="translate(114.5 77.5)" fill="none" stroke="#3f5655" stroke-linecap="round" stroke-width="1.5"/>
        </g>
        <g transform="translate(-113.25 -62.25)">
          <line id="Line_57-3" data-name="Line 57" x2="18.479" transform="translate(114.5 77.5)" fill="none" stroke="#3f5655" stroke-linecap="round" stroke-width="1.5"/>
        </g>
      </g>
      <g id="Group_12" data-name="Group 12" transform="translate(45.724 48.105)">
        <line id="Line_4" data-name="Line 4" y2="9.342" transform="translate(4.671 0)" fill="none" stroke="#fff" stroke-linecap="round" stroke-width="2"/>
        <line id="Line_5" data-name="Line 5" y1="9.342" transform="translate(9.342 4.671) rotate(90)" fill="none" stroke="#fff" stroke-linecap="round" stroke-width="2"/>
      </g>
    </g>
  </g>
</svg>
