<svg xmlns="http://www.w3.org/2000/svg" xmlns:xlink="http://www.w3.org/1999/xlink" width="50" height="50" viewBox="0 0 50 50"><defs><style>.a{clip-path:url(#b);}.b,.f,.i,.j,.l,.m,.n,.s{fill:none;}.c,.o,.q{fill:#142b26;}.d,.g,.h,.k,.r{fill:#fafafa;}.e{fill:#414141;font-family:MicrosoftTaiLe, Microsoft Tai Le;}.e,.o{font-size:4px;}.f,.l,.n{stroke:#142b26;}.f{stroke-width:1.5px;}.g{font-size:7px;font-family:Microsoft-Yi-Baiti, Microsoft Yi Baiti;font-style:italic;}.h{font-size:5px;font-family:NirmalaUI, Nirmala UI;}.i,.j{stroke:#fafafa;}.j{stroke-linecap:round;}.l{stroke-width:0.6px;}.m{stroke:#414141;stroke-width:0.5px;}.n{stroke-width:0.4px;}.o{font-family:LucidaConsole, Lucida Console;}.p,.q,.r{stroke:none;}</style><clipPath id="b"><rect width="50" height="50"/></clipPath></defs><g id="a" class="a"><g transform="translate(-1453.836 -78.836)"><g class="b" transform="translate(1457 105.151)"><path class="p" d="M0,0H20.52V20.52H3a3,3,0,0,1-3-3Z"/><path class="q" d="M 1.5 1.5 L 1.5 17.52035903930664 C 1.5 18.34745979309082 2.17289924621582 19.02035903930664 3 19.02035903930664 L 19.02035903930664 19.02035903930664 L 19.02035903930664 1.5 L 1.5 1.5 M 0 0 L 20.52035903930664 0 L 20.52035903930664 20.52035903930664 L 3 20.52035903930664 C 1.343149185180664 20.52035903930664 0 19.17720985412598 0 17.52035903930664 L 0 0 Z"/></g><g transform="translate(1457 82)"><path class="c" d="M3,0H20.52a0,0,0,0,1,0,0V20.52a0,0,0,0,1,0,0H0a0,0,0,0,1,0,0V3A3,3,0,0,1,3,0Z" transform="translate(0 0)"/></g><g transform="translate(1480.151 105.151)"><path class="c" d="M0,0H20.52a0,0,0,0,1,0,0V17.52a3,3,0,0,1-3,3H0a0,0,0,0,1,0,0V0A0,0,0,0,1,0,0Z" transform="translate(0)"/><g transform="translate(4.322 5.149)"><g class="d" transform="translate(0.159 2.883)"><path class="p" d="M 9.868249893188477 5.708120822906494 L 1.563114404678345 5.708120822906494 C 2.549728870391846 2.628043413162231 2.827993154525757 1.777205348014832 2.883673429489136 1.618860602378845 C 2.899517774581909 1.573803544044495 2.915596961975098 1.534181237220764 2.930937528610229 1.500000596046448 L 8.502291679382324 1.500000596046448 C 8.512622833251953 1.529177188873291 8.523720741271973 1.561391115188599 8.535593032836914 1.596900701522827 C 8.731991767883301 2.184318780899048 9.459877967834473 4.428331851959229 9.868249893188477 5.708120822906494 Z"/><path class="r" d="M 4.00919771194458 3.000000476837158 C 3.912777423858643 3.297870635986328 3.786061763763428 3.690696239471436 3.619685173034668 4.208120346069336 L 7.809961318969727 4.208120346069336 C 7.671451568603516 3.780034065246582 7.535502433776855 3.361259937286377 7.417718887329102 3.000000476837158 L 4.00919771194458 3.000000476837158 M 2.589873313903809 4.76837158203125e-07 L 8.836913108825684 4.76837158203125e-07 C 9.456172943115234 4.76837158203125e-07 9.693763732910156 0.3304004669189453 9.958183288574219 1.121260643005371 C 10.2226037979126 1.912130832672119 11.36689376831055 5.447750568389893 11.559983253479 6.086860656738281 C 11.75307369232178 6.72597074508667 11.0579833984375 7.208120822906494 10.43872356414795 7.208120822906494 L 0.9880733489990234 7.208120822906494 C 0.3688135147094727 7.208120822906494 -0.2979068756103516 6.600810527801514 -0.1331863403320313 6.086860656738281 C 0.03152370452880859 5.572900772094727 1.316452980041504 1.553970813751221 1.468613624572754 1.121260643005371 C 1.620783805847168 0.6885504722595215 1.970623016357422 4.76837158203125e-07 2.589873313903809 4.76837158203125e-07 Z"/></g><g class="b" transform="translate(4.03)"><path class="p" d="M1.922,0A1.922,1.922,0,0,1,3.844,1.922,1.953,1.953,0,0,1,3.52,2.991a1.9,1.9,0,0,1-1.6.853A1.942,1.942,0,0,1,.356,3.037,1.878,1.878,0,0,1,0,1.922,1.922,1.922,0,0,1,1.922,0Z"/><path class="r" d="M 1.922165751457214 0.9999957084655762 C 1.413675785064697 0.9999957084655762 0.9999957084655762 1.413675785064697 0.9999957084655762 1.922165751457214 C 0.9999957084655762 2.14922571182251 1.079715728759766 2.335745811462402 1.155975818634033 2.436775684356689 C 1.295515775680542 2.622705698013306 1.541715860366821 2.844335794448853 1.922165751457214 2.844335794448853 C 2.29671573638916 2.844335794448853 2.561555862426758 2.635655879974365 2.675965785980225 2.454705715179443 C 2.790835857391357 2.274095773696899 2.844335794448853 2.104875802993774 2.844335794448853 1.922165751457214 C 2.844335794448853 1.413675785064697 2.430655717849731 0.9999957084655762 1.922165751457214 0.9999957084655762 M 1.922165751457214 -4.291534423828125e-06 C 2.983745813369751 -4.291534423828125e-06 3.844335794448853 0.8605856895446777 3.844335794448853 1.922165751457214 C 3.844335794448853 2.300085783004761 3.735265731811523 2.652535915374756 3.519765853881836 2.991365671157837 C 3.206125736236572 3.487415790557861 2.605825901031494 3.844335794448853 1.922165751457214 3.844335794448853 C 1.293715715408325 3.844335794448853 0.7357058525085449 3.542735815048218 0.3561756610870361 3.03704571723938 C 0.1432557106018066 2.754965782165527 -4.291534423828125e-06 2.355295658111572 -4.291534423828125e-06 1.922165751457214 C -4.291534423828125e-06 0.8605856895446777 0.8605856895446777 -4.291534423828125e-06 1.922165751457214 -4.291534423828125e-06 Z"/></g><text class="e" transform="translate(3.549 7.684)"><tspan x="0" y="0">Kg</tspan></text></g></g><g transform="translate(1480.151 82)"><g class="f" transform="translate(0 0)"><path class="p" d="M0,0H17.52a3,3,0,0,1,3,3V20.52a0,0,0,0,1,0,0H0a0,0,0,0,1,0,0V0A0,0,0,0,1,0,0Z"/><path class="s" d="M1.5.75H17.52A2.25,2.25,0,0,1,19.77,3V19.02a.75.75,0,0,1-.75.75H1.5a.75.75,0,0,1-.75-.75V1.5A.75.75,0,0,1,1.5.75Z"/></g><g transform="translate(8.265 4.118)"><path class="c" d="M5.12,8.071h0A5.085,5.085,0,0,0,.128,3.079,4.1,4.1,0,1,1,5.121,8.071Z"/><text class="g" transform="translate(2.713 5.504)"><tspan x="0" y="0">$</tspan></text></g><g transform="translate(4.188 8.195)"><ellipse class="c" cx="4.099" cy="4.099" rx="4.099" ry="4.099" transform="translate(0 0)"/><text class="h" transform="translate(1.792 5.767)"><tspan x="0" y="0">रू</tspan></text></g></g><g class="i" transform="translate(1462.656 87.656)"><circle class="p" cx="4.604" cy="4.604" r="4.604"/><circle class="s" cx="4.604" cy="4.604" r="4.104"/></g><line class="j" y1="1.973" transform="translate(1467.326 90.353)"/><line class="i" y1="0.658" x2="0.658" transform="translate(1469.957 88.248)"/><rect class="k" width="2.631" height="0.789" transform="translate(1465.945 86.341)"/><line class="j" x2="1.315" y2="0.789" transform="translate(1467.326 92.457)"/><g class="l" transform="translate(1463.314 109.229)"><rect class="p" width="3.815" height="12.365"/><rect class="s" x="0.3" y="0.3" width="3.215" height="11.765"/></g><g transform="translate(0 0.197)"><line class="m" x2="1.9" transform="translate(1463.774 111.439)"/><line class="m" x2="1.562" transform="translate(1463.774 112.886)"/></g><g transform="translate(0 3.197)"><line class="m" x2="1.9" transform="translate(1463.774 111.439)"/><line class="m" x2="1.562" transform="translate(1463.774 112.886)"/></g><g transform="translate(0 6.197)"><line class="m" x2="1.9" transform="translate(1463.774 111.439)"/><line class="m" x2="1.562" transform="translate(1463.774 112.886)"/></g><g transform="translate(1466.931 110.215)"><line class="n" y2="8.813" transform="translate(2.975 0.789)"/><text class="o" transform="translate(4.015 2.499) rotate(-90)"><tspan x="0" y="0">&gt;</tspan></text><text class="o" transform="translate(1.945 7.892) rotate(90)"><tspan x="0" y="0">&gt;</tspan></text></g></g></g></svg>